<?xml version="1.0" encoding="utf-8"?><!DOCTYPE svg PUBLIC "-//W3C//DTD SVG 1.1//EN" "http://www.w3.org/Graphics/SVG/1.1/DTD/svg11.dtd"><svg version="1.1" xmlns="http://www.w3.org/2000/svg" xmlns:xlink="http://www.w3.org/1999/xlink" width="32" height="32" viewBox="0 0 32 32" data-tags="firebase"><g fill="#ffffff" transform="scale(0.03125 0.03125)"><path fill="#ffffff" d="M165.973 668.715l100.907-649.045c1.746-11.192 11.317-19.654 22.863-19.654 8.817 0 16.482 4.934 20.383 12.192l0.061 0.123 108.501 203.563-252.715 452.821zM882.56 826.197l-96.085-597.291c-1.912-11.031-11.411-19.313-22.845-19.313-6.368 0-12.136 2.569-16.324 6.728l0.001-0.001-605.867 609.877 335.232 188.928c9.744 5.573 21.416 8.859 33.856 8.859s24.112-3.286 34.196-9.038l-0.34 0.179 338.176-188.928zM610.133 304.981l-77.653-148.565c-3.95-7.42-11.635-12.385-20.48-12.385s-16.53 4.965-20.419 12.261l-0.061 0.125-340.907 610.901 459.52-462.336z" /></g></svg>